<svg width="16" height="16" viewBox="0 0 16 16" fill="none" xmlns="http://www.w3.org/2000/svg">
<path fill-rule="evenodd" clip-rule="evenodd" d="M0.137832 8.83608C-0.045944 8.65047 -0.045944 8.34953 0.137832 8.16392L3.13264 5.13921C3.31641 4.9536 3.61437 4.9536 3.79815 5.13921C3.98193 5.32482 3.98193 5.62576 3.79815 5.81137L1.60669 8.02471H14.3933L12.2019 5.81137C12.0181 5.62576 12.0181 5.32482 12.2019 5.13921C12.3856 4.9536 12.6836 4.9536 12.8674 5.13921L15.8622 8.16392C16.0459 8.34953 16.0459 8.65047 15.8622 8.83608L12.8674 11.8608C12.6836 12.0464 12.3856 12.0464 12.2019 11.8608C12.0181 11.6752 12.0181 11.3742 12.2019 11.1886L14.3933 8.97529H1.60669L3.79815 11.1886C3.98193 11.3742 3.98193 11.6752 3.79815 11.8608C3.61437 12.0464 3.31641 12.0464 3.13264 11.8608L0.137832 8.83608Z" fill="#191C30"/>
</svg>
