<svg width="24" height="24" viewBox="0 0 24 24" fill="none" xmlns="http://www.w3.org/2000/svg">
<path d="M19.4903 5.75937L18.2407 4.51337C18.0795 4.35071 17.8876 4.22159 17.6762 4.13348C17.4648 4.04536 17.2381 4 17.009 4C16.78 4 16.5532 4.04536 16.3418 4.13348C16.1304 4.22159 15.9386 4.35071 15.7774 4.51337L5.10656 15.1779C4.79361 15.4895 4.58259 15.8886 4.50139 16.3226L4.01725 18.8309C3.99033 18.9725 3.99497 19.1184 4.03082 19.258C4.06668 19.3976 4.13287 19.5276 4.22469 19.6388C4.31652 19.75 4.43171 19.8395 4.56208 19.9011C4.69246 19.9627 4.83478 19.9948 4.97898 19.9952C5.04096 20.0016 5.10347 20.0016 5.16546 19.9952L7.67776 19.5144C8.11163 19.4306 8.51042 19.2187 8.8227 18.9061L19.4903 8.24155C19.8167 7.9142 20 7.47085 20 7.00864C20 6.54643 19.8167 6.10306 19.4903 5.77571V5.75937ZM9.34941 15.2205L16.7719 7.80006L17.7532 8.78116L9.00591 17.5359L8.02453 17.0094C7.57527 16.7647 7.20613 16.3956 6.96138 15.9465L6.43471 14.9654L15.2213 6.23357L16.2027 7.21467L8.77694 14.6285L9.34941 15.2205ZM7.51747 18.6936L5.00517 19.1776C4.97876 19.1826 4.9515 19.1811 4.92583 19.1731C4.90015 19.1651 4.87682 19.1509 4.85794 19.1318C4.83964 19.1131 4.82622 19.0902 4.81881 19.0651C4.81139 19.0401 4.81022 19.0135 4.81541 18.9879L5.29632 16.4763C5.34927 16.2027 5.48249 15.9511 5.67903 15.7535L5.85242 15.5835L6.26132 16.3356C6.58204 16.9244 7.06592 17.4082 7.65488 17.7288L8.41056 18.1376L8.23717 18.3109C8.04341 18.5073 7.79484 18.6407 7.52402 18.6936H7.51747ZM18.9047 7.64636L18.3388 8.21212L15.7807 5.65471L16.3466 5.08895C16.5205 4.91594 16.7555 4.81841 17.0008 4.81751C17.1224 4.81724 17.2429 4.84109 17.3552 4.88769C17.4675 4.93428 17.5694 5.0027 17.6551 5.08895L18.9047 6.33822C18.9916 6.42343 19.0604 6.52526 19.1071 6.63763C19.1537 6.75001 19.1772 6.87063 19.1762 6.99229C19.1774 7.11339 19.1545 7.23351 19.1091 7.34575C19.0636 7.458 18.9964 7.56017 18.9113 7.64636H18.9047Z" fill="currentColor" fill-opacity="0.6"/>
</svg>
