<svg width="24" height="24" viewBox="0 0 24 24" fill="currentColor" xmlns="http://www.w3.org/2000/svg">
<path fill-rule="evenodd" clip-rule="evenodd" d="M7.17547 3.39999H16.8257C17.3644 3.39999 17.8048 3.39998 18.1627 3.42924C18.5332 3.45953 18.8677 3.52414 19.1802 3.68338C19.6688 3.93232 20.0676 4.32953 20.3172 4.8194C20.4764 5.13179 20.5409 5.46635 20.5712 5.83654C20.6004 6.19422 20.6004 6.6342 20.6004 7.17186V16.8287C20.6004 17.3663 20.6004 17.8061 20.5712 18.1636C20.5409 18.5336 20.4764 18.8679 20.3172 19.1803C20.0678 19.6698 19.6691 20.0677 19.1802 20.3168C18.8679 20.476 18.5336 20.5405 18.1635 20.5708C17.806 20.6 17.3662 20.6 16.8286 20.6H7.17226C6.63459 20.6 6.19461 20.6 5.83693 20.5708C5.46674 20.5405 5.13219 20.476 4.81979 20.3168C4.33005 20.0673 3.93278 19.6687 3.68377 19.18C3.52452 18.8674 3.45992 18.5328 3.42963 18.1623C3.40038 17.8043 3.40038 17.3638 3.40039 16.8251L3.40039 16.75C3.40039 16.4186 3.66902 16.15 4.00039 16.15C4.33176 16.15 4.60039 16.4186 4.60039 16.75V16.8C4.60039 17.37 4.60086 17.7612 4.62565 18.0645C4.64986 18.3608 4.69425 18.5199 4.75298 18.6352C4.88747 18.8991 5.10168 19.1137 5.36458 19.2476C5.47959 19.3062 5.63863 19.3506 5.93467 19.3748C6.23768 19.3995 6.62845 19.4 7.1973 19.4H16.8035C17.3723 19.4 17.7629 19.3995 18.0657 19.3748C18.3614 19.3506 18.5203 19.3063 18.6354 19.2476C18.8991 19.1132 19.1139 18.8986 19.248 18.6355C19.3066 18.5204 19.351 18.3615 19.3752 18.0658C19.3999 17.763 19.4004 17.3724 19.4004 16.8036V7.1969C19.4004 6.62805 19.3999 6.23728 19.3752 5.93427C19.351 5.63824 19.3066 5.4792 19.248 5.36419C19.1141 5.10141 18.8995 4.88714 18.6354 4.75259C18.5201 4.69384 18.361 4.64946 18.0649 4.62525C17.7617 4.60046 17.3706 4.59999 16.8006 4.59999H7.20059C6.63064 4.59999 6.23914 4.60046 5.93563 4.62525C5.63907 4.64947 5.47978 4.69389 5.36458 4.75259C5.10116 4.88681 4.8872 5.10076 4.75298 5.36419C4.69429 5.47938 4.64987 5.63868 4.62565 5.93523C4.60086 6.23875 4.60039 6.63024 4.60039 7.20019V7.24801C4.60039 7.57939 4.33176 7.84801 4.00039 7.84801C3.66902 7.84801 3.40039 7.57939 3.40039 7.24801L3.40039 7.17507C3.40038 6.63635 3.40038 6.19569 3.42963 5.83754C3.45991 5.46688 3.52448 5.13202 3.68377 4.8194C3.93304 4.33018 4.33057 3.93265 4.81979 3.68338C5.13242 3.52409 5.46727 3.45951 5.83794 3.42923C6.19609 3.39998 6.63675 3.39999 7.17547 3.39999ZM11.5761 8.57573C11.8104 8.34142 12.1903 8.34142 12.4247 8.57573L15.4247 11.5757C15.659 11.81 15.659 12.1899 15.4247 12.4243L12.4247 15.4243C12.1903 15.6586 11.8104 15.6586 11.5761 15.4243C11.3418 15.1899 11.3418 14.81 11.5761 14.5757L13.5519 12.6H4.00039C3.66902 12.6 3.40039 12.3314 3.40039 12C3.40039 11.6686 3.66902 11.4 4.00039 11.4H13.5519L11.5761 9.42426C11.3418 9.18994 11.3418 8.81004 11.5761 8.57573Z" fill="currentColor"  fill-opacity="0.8"/>
</svg>
