<svg width="34" height="32" viewBox="0 0 34 32" fill="none" xmlns="http://www.w3.org/2000/svg">
<path fill-rule="evenodd" clip-rule="evenodd" d="M17.6279 3.03686C17.7616 2.98771 17.9084 2.98771 18.042 3.03686L32.0423 8.18421C32.2784 8.27101 32.4353 8.49583 32.4353 8.74736C32.4353 8.99888 32.2784 9.22371 32.0423 9.3105L18.042 14.4579C17.9084 14.507 17.7616 14.507 17.6279 14.4579L3.62762 9.3105C3.39154 9.22371 3.23466 8.99888 3.23466 8.74736C3.23466 8.49583 3.39154 8.27101 3.62762 8.18421L17.6279 3.03686ZM5.57341 8.74736L17.835 13.2554L30.0965 8.74736L17.835 4.23927L5.57341 8.74736Z" fill="white" fill-opacity="0.8"/>
<path fill-rule="evenodd" clip-rule="evenodd" d="M9.61477 10.4175C9.94614 10.4175 10.2148 10.6861 10.2148 11.0175V18.4447C10.2173 18.4477 10.2203 18.4511 10.2237 18.4549C10.2699 18.505 10.3667 18.5821 10.5419 18.6743C10.891 18.858 11.4354 19.0416 12.1578 19.2026C13.5928 19.5225 15.6021 19.7258 17.8354 19.7258C20.0686 19.7258 22.0779 19.5225 23.513 19.2026C24.2354 19.0416 24.7797 18.858 25.1288 18.6743C25.304 18.5821 25.4009 18.505 25.447 18.4549C25.4505 18.4511 25.4534 18.4477 25.456 18.4447V11.0175C25.456 10.6861 25.7246 10.4175 26.056 10.4175C26.3873 10.4175 26.656 10.6861 26.656 11.0175V18.4919C26.656 18.814 26.5063 19.0759 26.3299 19.2676C26.1564 19.4561 25.9293 19.6091 25.6875 19.7363C25.2028 19.9913 24.5409 20.2029 23.7741 20.3739C22.2307 20.7179 20.1298 20.9258 17.8354 20.9258C15.5409 20.9258 13.44 20.7179 11.8966 20.3739C11.1298 20.2029 10.468 19.9913 9.98319 19.7363C9.74143 19.6091 9.51436 19.4561 9.34084 19.2676C9.16441 19.0759 9.01477 18.814 9.01477 18.4919V11.0175C9.01477 10.6861 9.2834 10.4175 9.61477 10.4175Z" fill="white" fill-opacity="0.8"/>
<path fill-rule="evenodd" clip-rule="evenodd" d="M5.44442 22.3865C5.2812 22.3859 5.11949 22.4176 4.96853 22.4797C4.81757 22.5417 4.68035 22.633 4.56475 22.7482C4.44913 22.8634 4.3574 23.0003 4.29481 23.1511C4.23222 23.3018 4.2 23.4634 4.2 23.6266V28.0855H7.42647V23.6266C7.42647 23.2977 7.29582 22.9823 7.06326 22.7497C6.83069 22.5171 6.51524 22.3865 6.18632 22.3865L5.44442 22.3865ZM5.44743 21.1865C5.12665 21.1855 4.80885 21.2478 4.51217 21.3698C4.21515 21.492 3.94516 21.6715 3.71767 21.8982C3.4902 22.1249 3.3097 22.3943 3.18655 22.6909C3.0634 22.9875 3 23.3055 3 23.6266V28.6855C3 29.0168 3.26863 29.2855 3.6 29.2855H8.02647C8.35785 29.2855 8.62647 29.0168 8.62647 28.6855V23.6266C8.62647 22.9795 8.36941 22.3588 7.91179 21.9012C7.45417 21.4436 6.83349 21.1865 6.18632 21.1865H5.44743Z" fill="white" fill-opacity="0.8"/>
<path fill-rule="evenodd" clip-rule="evenodd" d="M5.82065 9.45C6.15202 9.45 6.42065 9.71863 6.42065 10.05V21.4324C6.42065 21.7637 6.15202 22.0324 5.82065 22.0324C5.48928 22.0324 5.22065 21.7637 5.22065 21.4324V10.05C5.22065 9.71863 5.48928 9.45 5.82065 9.45Z" fill="white" fill-opacity="0.8"/>
</svg>
