<svg width="24" height="24" viewBox="0 0 24 24" fill="none" xmlns="http://www.w3.org/2000/svg">
<path d="M14.9375 3.9375L18.063 7.06298C18.4089 7.40889 18.5809 7.58136 18.7046 7.78319C18.8142 7.96214 18.8953 8.15726 18.9443 8.36133C18.9857 8.53376 18.9963 8.71451 18.9991 9C19 9.09561 19 9.20296 19 9.32568V17.8036C19 18.9215 19 19.4805 18.7822 19.9079C18.5905 20.2842 18.2837 20.5905 17.9074 20.7822C17.48 21 16.921 21 15.8031 21L8.19694 21C7.079 21 6.51921 21 6.0918 20.7822C5.71547 20.5905 5.40973 20.2842 5.21799 19.9079C5 19.4801 5 18.9203 5 17.8002V6.2002C5 5.08009 5 4.51962 5.21799 4.0918C5.40973 3.71547 5.71547 3.40973 6.0918 3.21799C6.51962 3 7.08009 3 8.2002 3H12.6747C12.7973 3 12.9045 3 13 3.00087C13.2856 3.00347 13.4663 3.01385 13.6388 3.05526C13.8429 3.10425 14.0379 3.18526 14.2168 3.29492C14.4186 3.41857 14.5918 3.59182 14.9375 3.9375Z" fill="#0D36CC"/>
<path fill-rule="evenodd" clip-rule="evenodd" d="M8.16978 2.25L12.6772 2.25C12.7978 2.25 12.9079 2.25 13.0068 2.2509C13.297 2.25354 13.5519 2.26307 13.8139 2.32598C14.0951 2.39349 14.3631 2.50497 14.6087 2.65544C14.8878 2.82651 15.121 3.05994 15.4166 3.35591C15.4335 3.3728 15.4505 3.38988 15.4678 3.40717L18.5933 6.53265C18.6093 6.54867 18.6252 6.56448 18.6408 6.58012C18.9393 6.87834 19.1723 7.11111 19.344 7.39132C19.4944 7.63677 19.6061 7.90497 19.6736 8.18625C19.7333 8.4349 19.7452 8.67713 19.7486 8.95013C19.7496 8.96661 19.7502 8.98324 19.7502 9C19.7502 9.01185 19.7499 9.02364 19.7494 9.03536C19.75 9.12396 19.75 9.22083 19.75 9.32569V17.834C19.75 18.3671 19.75 18.8121 19.7203 19.1758C19.6893 19.5552 19.6222 19.9114 19.4505 20.2484C19.1866 20.7662 18.7649 21.187 18.2479 21.4505C17.9109 21.6222 17.5547 21.6893 17.1753 21.7203C16.8116 21.75 16.3666 21.75 15.8335 21.75L8.16653 21.75C7.63343 21.75 7.18819 21.75 6.82434 21.7203C6.44487 21.6893 6.08837 21.6222 5.75131 21.4505C5.23344 21.1866 4.81317 20.7654 4.54973 20.2484C4.3779 19.9111 4.31078 19.5546 4.27974 19.1747C4.24998 18.8106 4.24999 18.3648 4.25 17.8306V6.16978C4.24999 5.63561 4.24998 5.18966 4.27974 4.82534C4.31077 4.44541 4.37787 4.08861 4.54973 3.75131C4.81338 3.23386 5.23386 2.81338 5.7513 2.54973C6.08861 2.37787 6.44541 2.31077 6.82534 2.27974C7.18966 2.24998 7.63561 2.24999 8.16978 2.25ZM18.1076 8.25C18.0943 8.2246 18.0801 8.19961 18.0651 8.17507C17.9984 8.06631 17.9031 7.96371 17.5327 7.59332L14.4072 4.46783C14.0362 4.09687 13.9334 4.00087 13.8249 3.9344C13.8004 3.91937 13.7754 3.9052 13.75 3.89193V5.8C13.75 6.37244 13.7506 6.75654 13.7748 7.05231C13.7982 7.33928 13.8401 7.4765 13.8862 7.5671C14.0064 7.80296 14.1977 7.99446 14.4323 8.11397C14.5226 8.16 14.6597 8.20184 14.9465 8.22527C15.242 8.24942 15.6256 8.25 16.1969 8.25H18.1076ZM12.25 3.75V5.83045C12.25 6.36459 12.25 6.81035 12.2797 7.17449C12.3108 7.55434 12.3779 7.91086 12.5497 8.24809C12.8131 8.76488 13.2332 9.1865 13.7513 9.45048C14.0884 9.62223 14.4449 9.68928 14.8243 9.72029C15.1882 9.75002 15.6334 9.75001 16.1665 9.75H18.25V17.8036C18.25 18.3749 18.2494 18.7583 18.2253 19.0536C18.2019 19.34 18.16 19.477 18.114 19.5674C17.9943 19.8022 17.8025 19.9939 17.5669 20.114C17.4765 20.16 17.3395 20.2019 17.0531 20.2253C16.7578 20.2494 16.3744 20.25 15.8031 20.25L8.19694 20.25C7.62561 20.25 7.242 20.2494 6.94651 20.2253C6.65973 20.2018 6.52263 20.16 6.43229 20.114C6.19751 19.9943 6.0063 19.803 5.88624 19.5674C5.84008 19.4768 5.79821 19.3396 5.77476 19.0526C5.75058 18.7568 5.75 18.3726 5.75 17.8002V6.2002C5.75 5.62778 5.75058 5.24344 5.77476 4.94745C5.79822 4.66016 5.84012 4.52281 5.88624 4.43229C6.00608 4.19709 6.19709 4.00608 6.43229 3.88624C6.52281 3.84012 6.66016 3.79823 6.94745 3.77476C7.24344 3.75058 7.62778 3.75 8.2002 3.75H12.25ZM15.5303 12.4697C15.8232 12.7626 15.8232 13.2374 15.5303 13.5303L11.5303 17.5303C11.2374 17.8232 10.7626 17.8232 10.4697 17.5303L8.46967 15.5303C8.17678 15.2374 8.17678 14.7626 8.46967 14.4697C8.76256 14.1768 9.23744 14.1768 9.53033 14.4697L11 15.9393L14.4697 12.4697C14.7626 12.1768 15.2374 12.1768 15.5303 12.4697Z" fill="white"/>
</svg>
