<svg width="34" height="32" viewBox="0 0 34 32" fill="none" xmlns="http://www.w3.org/2000/svg">
<path fill-rule="evenodd" clip-rule="evenodd" d="M29.0214 11.3851H24.2953V10.1851H30.2214V16.1167H29.0214V11.3851Z" fill="white" fill-opacity="0.8"/>
<path fill-rule="evenodd" clip-rule="evenodd" d="M18.35 19.5201L29.1527 10.5982L29.9168 11.5234L18.2352 21.1712L14.8663 17.4935L4.76383 25.8312L4 24.9057L14.9814 15.8427L18.35 19.5201Z" fill="white" fill-opacity="0.8"/>
<path fill-rule="evenodd" clip-rule="evenodd" d="M6.69161 19.5462V9.06491H7.89161V19.5462H6.69161Z" fill="white" fill-opacity="0.8"/>
<path fill-rule="evenodd" clip-rule="evenodd" d="M6.69161 28.9192V22.8488H7.89161V28.9192H6.69161Z" fill="white" fill-opacity="0.8"/>
<path fill-rule="evenodd" clip-rule="evenodd" d="M12.2052 14.584V3.55136H13.4052V14.584H12.2052Z" fill="white" fill-opacity="0.8"/>
<path fill-rule="evenodd" clip-rule="evenodd" d="M12.2052 24.5084V18.438H13.4052V24.5084H12.2052Z" fill="white" fill-opacity="0.8"/>
<path fill-rule="evenodd" clip-rule="evenodd" d="M17.7187 15.1353V6.85949H18.9187V15.1353H17.7187Z" fill="white" fill-opacity="0.8"/>
<path fill-rule="evenodd" clip-rule="evenodd" d="M17.7187 26.1625V20.092H18.9187V26.1625H17.7187Z" fill="white" fill-opacity="0.8"/>
<path fill-rule="evenodd" clip-rule="evenodd" d="M23.2387 7.96772V3H24.4387V7.96772H23.2387Z" fill="white" fill-opacity="0.8"/>
<path fill-rule="evenodd" clip-rule="evenodd" d="M23.2387 29.4706V15.6812H24.4387V29.4706H23.2387Z" fill="white" fill-opacity="0.8"/>
</svg>
