<svg width="34" height="32" viewBox="0 0 34 32" fill="none" xmlns="http://www.w3.org/2000/svg">
<path fill-rule="evenodd" clip-rule="evenodd" d="M17.6336 9.6V23.32H16.4336V9.6H17.6336Z" fill="white" fill-opacity="0.8"/>
<path fill-rule="evenodd" clip-rule="evenodd" d="M17.0353 8.80088L22.8949 14.6604L22.0463 15.509L17.0353 10.4979L12.0243 15.509L11.1757 14.6604L17.0353 8.80088Z" fill="white" fill-opacity="0.8"/>
<path fill-rule="evenodd" clip-rule="evenodd" d="M7.6 4.2C7.22571 4.2 6.87302 4.28526 6.5588 4.43685L6.03738 3.35606C6.51072 3.1277 7.04129 3 7.6 3H9.40952V4.2H7.6ZM15.7429 4.2H12.1238V3H15.7429V4.2ZM22.0762 4.2H18.4571V3H22.0762V4.2ZM26.6 4.2H24.7905V3H26.6C27.1587 3 27.6893 3.1277 28.1626 3.35606L27.6412 4.43685C27.327 4.28526 26.9743 4.2 26.6 4.2ZM5.43685 5.5588C5.28526 5.87302 5.2 6.22571 5.2 6.6V8.40952H4V6.6C4 6.04129 4.1277 5.51072 4.35606 5.03738L5.43685 5.5588ZM29 6.6C29 6.22571 28.9147 5.87302 28.7631 5.5588L29.8439 5.03738C30.0723 5.51072 30.2 6.04129 30.2 6.6V8.40952H29V6.6ZM5.2 11.1238V14.7429H4V11.1238H5.2ZM29 14.7429V11.1238H30.2V14.7429H29ZM29 21.0762V17.4571H30.2V21.0762H29ZM5.2 17.4571V21.0762H4V17.4571H5.2ZM5.2 23.7905V25.6C5.2 25.9743 5.28526 26.327 5.43685 26.6412L4.35606 27.1626C4.1277 26.6893 4 26.1587 4 25.6V23.7905H5.2ZM29 25.6V23.7905H30.2V25.6C30.2 26.1587 30.0723 26.6893 29.8439 27.1626L28.7631 26.6412C28.9147 26.327 29 25.9743 29 25.6ZM6.5588 27.7631C6.87302 27.9147 7.22571 28 7.6 28H9.40952V29.2H7.6C7.04129 29.2 6.51072 29.0723 6.03738 28.8439L6.5588 27.7631ZM26.6 28C26.9743 28 27.327 27.9147 27.6412 27.7631L28.1626 28.8439C27.6893 29.0723 27.1587 29.2 26.6 29.2H24.7905V28H26.6ZM12.1238 28H15.7429V29.2H12.1238V28ZM18.4571 28H22.0762V29.2H18.4571V28Z" fill="white" fill-opacity="0.8"/>
</svg>
