<svg width="16" height="16" viewBox="0 0 16 16" fill="none" xmlns="http://www.w3.org/2000/svg">
<path fill-rule="evenodd" clip-rule="evenodd" d="M4.71929 3.28071C4.53069 3.09855 4.27808 2.99776 4.01589 3.00004C3.75369 3.00232 3.50288 3.10749 3.31747 3.29289C3.13206 3.4783 3.02689 3.72911 3.02461 3.99131C3.02234 4.25351 3.12313 4.50611 3.30529 4.69471L6.59829 7.98771L3.30529 11.2807C3.20978 11.373 3.1336 11.4833 3.08119 11.6053C3.02878 11.7273 3.00119 11.8585 3.00004 11.9913C2.99888 12.1241 3.02419 12.2558 3.07447 12.3787C3.12475 12.5016 3.199 12.6132 3.29289 12.7071C3.38679 12.801 3.49844 12.8753 3.62133 12.9255C3.74423 12.9758 3.87591 13.0011 4.00869 13C4.14147 12.9988 4.27269 12.9712 4.39469 12.9188C4.5167 12.8664 4.62704 12.7902 4.71929 12.6947L8.01229 9.40171L11.3053 12.6947C11.4939 12.8769 11.7465 12.9777 12.0087 12.9754C12.2709 12.9731 12.5217 12.8679 12.7071 12.6825C12.8925 12.4971 12.9977 12.2463 13 11.9841C13.0022 11.7219 12.9014 11.4693 12.7193 11.2807L9.42629 7.98771L12.7193 4.69471C12.9014 4.50611 13.0022 4.25351 13 3.99131C12.9977 3.72911 12.8925 3.4783 12.7071 3.29289C12.5217 3.10749 12.2709 3.00232 12.0087 3.00004C11.7465 2.99776 11.4939 3.09855 11.3053 3.28071L8.01229 6.57371L4.71929 3.28071Z" fill="#191C30" fill-opacity="0.3"/>
</svg>
