<svg width="16" height="17" viewBox="0 0 16 17" fill="none" xmlns="http://www.w3.org/2000/svg">
<path fill-rule="evenodd" clip-rule="evenodd" d="M11.4999 7.14006H12.1337C12.3392 7.14006 12.5362 7.22138 12.6819 7.3663C12.8275 7.51122 12.9098 7.70792 12.9108 7.91337V13.7229C12.9108 13.929 12.8289 14.1266 12.6832 14.2724C12.5374 14.4181 12.3398 14.5 12.1337 14.5H4.75452C4.55204 14.4951 4.35957 14.4109 4.21848 14.2656C4.07739 14.1202 3.99896 13.9254 4.00001 13.7229V7.89454C4.0048 7.69594 4.08583 7.50677 4.22631 7.3663C4.36678 7.22583 4.55592 7.14485 4.75452 7.14006H5.38834V5.55563C5.38834 4.74522 5.71029 3.96802 6.28336 3.39498C6.85643 2.82193 7.63367 2.5 8.44411 2.5C9.25455 2.5 10.0318 2.82193 10.6049 3.39498C11.1779 3.96802 11.4999 4.74522 11.4999 5.55563V7.14006ZM6.6835 3.7951C6.21655 4.26203 5.95422 4.8953 5.95422 5.55563V7.14006H10.934V5.55563C10.934 4.8953 10.6717 4.26203 10.2047 3.7951C9.73777 3.32818 9.10447 3.06586 8.44411 3.06586C7.78375 3.06586 7.15045 3.32818 6.6835 3.7951ZM12.2868 13.8723C12.3264 13.8326 12.3487 13.7789 12.3487 13.7229V7.91337C12.3477 7.858 12.325 7.80523 12.2855 7.76643C12.246 7.72762 12.1928 7.70591 12.1374 7.70592H4.7583C4.70327 7.70592 4.65049 7.72775 4.61158 7.76666C4.57267 7.80557 4.55079 7.85835 4.55079 7.91337V13.7229C4.55078 13.7782 4.57254 13.8314 4.61135 13.8709C4.65016 13.9104 4.70293 13.9332 4.7583 13.9341H12.1374C12.1935 13.9341 12.2472 13.9119 12.2868 13.8723ZM7.92353 9.38893C8.06957 9.26571 8.25413 9.19745 8.44521 9.19598C8.63628 9.19745 8.8208 9.26571 8.96684 9.38893C9.11288 9.51215 9.21122 9.68256 9.24481 9.87066C9.2784 10.0588 9.24513 10.2527 9.15077 10.4188C9.05641 10.585 8.90691 10.7129 8.72815 10.7804V12.2139H8.16227V10.7804C7.98351 10.7129 7.83396 10.585 7.7396 10.4188C7.64524 10.2527 7.61197 10.0588 7.64556 9.87066C7.67915 9.68256 7.77749 9.51215 7.92353 9.38893ZM8.62394 9.83589C8.57653 9.78849 8.51224 9.76184 8.44521 9.76184C8.37817 9.76184 8.31388 9.78849 8.26648 9.83589C8.21908 9.88329 8.19243 9.94758 8.19243 10.0146C8.19243 10.0816 8.21908 10.1459 8.26648 10.1933C8.31388 10.2407 8.37817 10.2673 8.44521 10.2673C8.51224 10.2673 8.57653 10.2407 8.62394 10.1933C8.67134 10.1459 8.69794 10.0816 8.69794 10.0146C8.69794 9.94758 8.67134 9.88329 8.62394 9.83589Z" fill="#191C30" fill-opacity="0.6"/>
</svg>
