<svg width="32" height="32" viewBox="0 0 32 32" fill="none" xmlns="http://www.w3.org/2000/svg">
<path fill-rule="evenodd" clip-rule="evenodd" d="M8.8142 5.16675C10.9586 3.74433 13.4769 2.99029 16.0502 3.00019C17.755 3.00018 19.4431 3.33681 21.0175 3.99073C22.5919 4.64465 24.0217 5.60298 25.2249 6.8108C26.4281 8.01862 27.381 9.45212 28.0288 11.0291C28.6767 12.606 29.0068 14.2954 29.0002 16.0002C29.0002 18.5735 28.2364 21.0889 26.8057 23.2278C25.375 25.3667 23.3418 27.0329 20.9634 28.0153C18.5851 28.9978 15.9687 29.2523 13.4456 28.7466C10.9224 28.241 8.60617 26.9978 6.7901 25.1747C4.97402 23.3517 3.73984 21.0306 3.24389 18.5056C2.74795 15.9805 3.01254 13.3651 4.00415 10.9905C4.99576 8.616 6.6698 6.58918 8.8142 5.16675ZM18.5702 20.0002L21.5702 23.0002L22.8802 21.7602L19.8202 18.7102C20.337 17.9748 20.6731 17.1279 20.8015 16.2383C20.9299 15.3487 20.8468 14.4415 20.559 13.59C20.2712 12.7385 19.7868 11.9668 19.1451 11.3375C18.5033 10.7082 17.7224 10.2389 16.8654 9.96778C16.0085 9.69669 15.0997 9.63137 14.2128 9.77711C13.3258 9.92284 12.4857 10.2755 11.7606 10.8066C11.0354 11.3376 10.4456 12.0321 10.039 12.8337C9.63237 13.6353 9.42036 14.5214 9.42016 15.4202C9.4197 16.4824 9.71505 17.5239 10.2731 18.4277C10.8312 19.3316 11.63 20.0622 12.5799 20.5377C13.5298 21.0131 14.5933 21.2148 15.6514 21.1198C16.7094 21.0249 17.7201 20.6372 18.5702 20.0002ZM12.8722 12.1207C13.5168 11.69 14.2747 11.4601 15.05 11.4601C16.0889 11.4627 17.0844 11.8765 17.819 12.6111C18.5535 13.3457 18.9674 14.3412 18.97 15.38C18.97 16.1553 18.7401 16.9133 18.3094 17.5579C17.8786 18.2025 17.2664 18.7049 16.5502 19.0016C15.8339 19.2983 15.0457 19.376 14.2853 19.2247C13.5249 19.0734 12.8264 18.7001 12.2782 18.1519C11.73 17.6037 11.3566 16.9052 11.2054 16.1448C11.0541 15.3844 11.1318 14.5962 11.4284 13.8799C11.7251 13.1636 12.2275 12.5514 12.8722 12.1207Z" fill="#fff"/>
</svg>
