<svg width="34" height="32" viewBox="0 0 34 32" fill="none" xmlns="http://www.w3.org/2000/svg">
<path d="M16.864 21.6076C15.7224 21.6096 14.6058 21.2729 13.6556 20.6401C12.7054 20.0073 11.9643 19.1068 11.5261 18.0526C11.0878 16.9985 10.9721 15.838 11.1936 14.7181C11.4151 13.5982 11.9639 12.5691 12.7704 11.7612C13.577 10.9532 14.6051 10.4027 15.7246 10.1792C16.8442 9.95578 18.0048 10.0695 19.0598 10.5059C20.1147 10.9423 21.0164 11.6819 21.6509 12.6309C22.2853 13.58 22.624 14.696 22.624 15.8376C22.624 17.3662 22.0175 18.8323 20.9375 19.9141C19.8576 20.9959 18.3926 21.605 16.864 21.6076ZM16.864 11.2776C15.9597 11.2776 15.0757 11.5459 14.324 12.0485C13.5722 12.5511 12.9865 13.2654 12.6409 14.1011C12.2953 14.9367 12.2054 15.8561 12.3825 16.7429C12.5597 17.6296 12.9959 18.4439 13.6361 19.0826C14.2762 19.7214 15.0914 20.1558 15.9786 20.331C16.8657 20.5062 17.7849 20.4143 18.6198 20.0669C19.4547 19.7194 20.1677 19.1321 20.6687 18.3793C21.1696 17.6264 21.436 16.7419 21.434 15.8376C21.4313 14.6273 20.9487 13.4675 20.0919 12.6126C19.2352 11.7577 18.0743 11.2776 16.864 11.2776Z" fill="white" fill-opacity="0.8"/>
<path d="M16.8639 29.6677C16.1304 29.6771 15.4189 29.4174 14.8639 28.9377C14.3204 28.4644 13.9654 27.8112 13.8639 27.0977C13.8123 26.7913 13.6851 26.5026 13.4939 26.2577C13.3015 26.0156 13.0516 25.8256 12.7668 25.7051C12.4821 25.5846 12.1716 25.5373 11.8639 25.5677C11.5536 25.6085 11.2582 25.7253 11.0039 25.9077C10.4293 26.3372 9.7197 26.5465 9.00393 26.4977C8.46471 26.4608 7.94547 26.2789 7.50108 25.9713C7.0567 25.6637 6.70367 25.2417 6.47933 24.75C6.25498 24.2582 6.16764 23.715 6.22654 23.1778C6.28543 22.6405 6.48838 22.1291 6.81393 21.6977C6.98926 21.4415 7.09913 21.1462 7.13393 20.8377C7.17198 20.5282 7.12711 20.2142 7.00393 19.9277C6.88598 19.6359 6.69275 19.3805 6.44393 19.1877C6.19702 19.0036 5.90848 18.8834 5.60393 18.8377C4.89039 18.7362 4.23723 18.3812 3.76393 17.8377C3.27198 17.2877 3 16.5756 3 15.8377C3 15.0998 3.27198 14.3877 3.76393 13.8377C4.23723 13.2942 4.89039 12.9392 5.60393 12.8377C5.91032 12.7861 6.19902 12.6589 6.44393 12.4677C6.6893 12.2786 6.88109 12.0288 7.00035 11.743C7.11961 11.4571 7.16221 11.1451 7.12393 10.8377C7.09199 10.5282 6.97423 10.2338 6.78393 9.98769C6.36502 9.40821 6.16004 8.70139 6.20393 7.98769C6.24033 7.44932 6.42127 6.93072 6.72768 6.48655C7.03408 6.04238 7.45462 5.68908 7.94498 5.46386C8.43534 5.23864 8.97736 5.14985 9.51395 5.20684C10.0505 5.26384 10.5618 5.4645 10.9939 5.78769C11.2519 5.96848 11.551 6.08191 11.8639 6.11769C12.1766 6.14718 12.4917 6.10265 12.7839 5.98769C13.0712 5.86663 13.3226 5.6738 13.5139 5.42769C13.6981 5.17708 13.8182 4.88529 13.8639 4.57769C13.9654 3.86415 14.3204 3.21099 14.8639 2.73769C15.4215 2.26158 16.1307 2 16.8639 2C17.5972 2 18.3063 2.26158 18.8639 2.73769C19.4075 3.21099 19.7624 3.86415 19.8639 4.57769C19.9109 4.88847 20.0385 5.18152 20.2339 5.42769C20.423 5.67613 20.675 5.86948 20.9639 5.98769C21.2532 6.10505 21.5677 6.14644 21.8775 6.10793C22.1874 6.06942 22.4822 5.9523 22.7339 5.76769C23.3086 5.33821 24.0182 5.12889 24.7339 5.17769C25.2757 5.21171 25.7981 5.3921 26.2455 5.69963C26.6928 6.00716 27.0483 6.43031 27.2741 6.92398C27.4999 7.41765 27.5875 7.96333 27.5276 8.50287C27.4677 9.04241 27.2625 9.55558 26.9339 9.98769C26.7493 10.2395 26.6322 10.5343 26.5937 10.8441C26.5552 11.1539 26.5966 11.4684 26.7139 11.7577C26.8358 12.0445 27.0285 12.2957 27.2739 12.4877C27.5201 12.6831 27.8132 12.8107 28.1239 12.8577C28.8375 12.9592 29.4906 13.3142 29.9639 13.8577C30.4395 14.4038 30.7014 15.1035 30.7014 15.8277C30.7014 16.5518 30.4395 17.2516 29.9639 17.7977C29.4906 18.3412 28.8375 18.6962 28.1239 18.7977C27.8145 18.8494 27.5226 18.9764 27.2739 19.1677C27.0285 19.3597 26.8358 19.6109 26.7139 19.8977C26.5967 20.1887 26.5553 20.5048 26.5938 20.8161C26.6323 21.1275 26.7493 21.424 26.9339 21.6777C27.3913 22.2549 27.6203 22.9802 27.5774 23.7154C27.5345 24.4506 27.2227 25.1444 26.7013 25.6645C26.1799 26.1846 25.4854 26.4948 24.7501 26.536C24.0148 26.5771 23.2901 26.3464 22.7139 25.8877C22.4634 25.7053 22.1712 25.5884 21.8639 25.5477C21.5512 25.5107 21.2342 25.5555 20.9439 25.6777C20.655 25.7959 20.403 25.9893 20.2139 26.2377C20.0212 26.4817 19.8939 26.7708 19.8439 27.0777C19.7424 27.7912 19.3875 28.4444 18.8439 28.9177C18.297 29.4 17.5931 29.6666 16.8639 29.6677ZM12.0839 24.3577C12.4787 24.358 12.8695 24.4361 13.2339 24.5877C13.7145 24.7845 14.1359 25.1026 14.4566 25.511C14.7774 25.9194 14.9867 26.4041 15.0639 26.9177C15.1269 27.3491 15.3436 27.7432 15.6739 28.0277C16.0089 28.3041 16.4297 28.4552 16.8639 28.4552C17.2982 28.4552 17.7189 28.3041 18.0539 28.0277C18.3843 27.7432 18.6009 27.3491 18.6639 26.9177C18.7366 26.4062 18.9436 25.9231 19.2639 25.5177C19.586 25.1101 20.0056 24.7902 20.4839 24.5877C20.9629 24.3839 21.4876 24.3114 22.0039 24.3777C22.5221 24.4401 23.015 24.6365 23.4339 24.9477C23.7841 25.1994 24.2118 25.3193 24.6418 25.2864C25.0717 25.2534 25.4762 25.0698 25.7839 24.7677C26.0922 24.4614 26.2801 24.0545 26.3131 23.6212C26.3462 23.1879 26.2222 22.7572 25.9639 22.4077C25.658 21.9906 25.465 21.5014 25.4039 20.9877C25.3361 20.469 25.405 19.9415 25.6039 19.4577C25.8065 18.9793 26.1263 18.5597 26.5339 18.2377C26.9441 17.919 27.4299 17.7123 27.9439 17.6377C28.3752 17.5732 28.769 17.356 29.0536 17.0257C29.3383 16.6953 29.4949 16.2738 29.4949 15.8377C29.4949 15.4016 29.3383 14.98 29.0536 14.6497C28.769 14.3193 28.3752 14.1022 27.9439 14.0377C27.4299 13.9631 26.9441 13.7564 26.5339 13.4377C26.1234 13.1185 25.803 12.6981 25.6039 12.2177C25.404 11.7376 25.335 11.2131 25.4039 10.6977C25.4663 10.1796 25.6628 9.68667 25.9739 9.26769C26.2317 8.91927 26.3559 8.48992 26.3239 8.05769C26.2951 7.62212 26.1064 7.21256 25.7939 6.90769C25.488 6.59681 25.079 6.40834 24.6439 6.37769C24.2117 6.34573 23.7824 6.46992 23.4339 6.72769C23.015 7.03884 22.5221 7.23531 22.0039 7.29769C21.4885 7.3676 20.9637 7.29855 20.4839 7.09769C20.0035 6.89866 19.5831 6.57819 19.2639 6.16769C18.9452 5.75756 18.7385 5.27171 18.6639 4.75769C18.6009 4.3263 18.3843 3.93215 18.0539 3.64769C17.7189 3.37134 17.2982 3.22019 16.8639 3.22019C16.4297 3.22019 16.0089 3.37134 15.6739 3.64769C15.3436 3.93215 15.1269 4.3263 15.0639 4.75769C14.9894 5.27171 14.7826 5.75756 14.4639 6.16769C14.1444 6.58058 13.7226 6.90292 13.2403 7.10286C12.758 7.30279 12.2319 7.3734 11.7139 7.30769C11.196 7.23799 10.7041 7.03847 10.2839 6.72769C9.93227 6.47739 9.5045 6.35719 9.07393 6.38769C8.64317 6.42396 8.23915 6.61156 7.93347 6.91723C7.6278 7.22291 7.4402 7.62693 7.40393 8.05769C7.36922 8.4902 7.49369 8.9205 7.75393 9.26769C8.06151 9.6877 8.2545 10.1805 8.31393 10.6977C8.38399 11.2099 8.31491 11.7314 8.11393 12.2077C7.91717 12.6883 7.59902 13.1096 7.1906 13.4304C6.78218 13.7512 6.29748 13.9604 5.78393 14.0377C5.35265 14.1022 4.95886 14.3193 4.67422 14.6497C4.38957 14.98 4.233 15.4016 4.233 15.8377C4.233 16.2738 4.38957 16.6953 4.67422 17.0257C4.95886 17.356 5.35265 17.5732 5.78393 17.6377C6.3005 17.7096 6.78784 17.9204 7.19393 18.2477C7.5979 18.5709 7.91424 18.9904 8.11393 19.4677C8.31451 19.9476 8.38688 20.4714 8.32393 20.9877C8.25937 21.5005 8.06679 21.9888 7.76393 22.4077C7.5068 22.7553 7.38262 23.1835 7.41385 23.6148C7.44508 24.046 7.62967 24.4519 7.93421 24.7588C8.23875 25.0658 8.64311 25.2536 9.07411 25.2882C9.50511 25.3229 9.93428 25.2021 10.2839 24.9477C10.7045 24.6393 11.1966 24.4432 11.7139 24.3777L12.0839 24.3577Z" fill="white" fill-opacity="0.8"/>
</svg>
