<svg width="32" height="32" viewBox="0 0 32 32" xmlns="http://www.w3.org/2000/svg" >
<path fill-rule="currentColor" clip-rule="currentColor" d="M16.05 3.0001C13.4767 2.9902 10.9584 3.74423 8.81404 5.16666C6.66964 6.58909 4.99559 8.6159 4.00398 10.9905C3.01237 13.365 2.74778 15.9804 3.24373 18.5055C3.73968 21.0305 4.97386 23.3516 6.78993 25.1747C8.60601 26.9977 10.9223 28.2409 13.4454 28.7466C15.9685 29.2522 18.5849 28.9977 20.9633 28.0152C23.3416 27.0328 25.3749 25.3666 26.8056 23.2277C28.2362 21.0888 29 18.5734 29 16.0001C29 12.5609 27.6373 9.26189 25.2101 6.82535C22.7829 4.38881 19.4891 3.01332 16.05 3.0001ZM22.84 16.7501H16.84V22.7501H15.24V16.7501H9.24001V15.1501H15.24V9.15012H16.84V15.1501H22.84V16.7501Z" fill="#fff"/>
</svg>
