<svg width="34" height="32" viewBox="0 0 34 32" fill="none" xmlns="http://www.w3.org/2000/svg" >
<path fill-rule="evenodd" clip-rule="evenodd" d="M16.9529 4.2C10.462 4.2 5.2 9.46197 5.2 15.9529C5.2 22.4439 10.462 27.7059 16.9529 27.7059C23.4439 27.7059 28.7059 22.4439 28.7059 15.9529C28.7059 9.46197 23.4439 4.2 16.9529 4.2ZM4 15.9529C4 8.79923 9.79923 3 16.9529 3C24.1067 3 29.9059 8.79923 29.9059 15.9529C29.9059 23.1067 24.1067 28.9059 16.9529 28.9059C9.79923 28.9059 4 23.1067 4 15.9529ZM17.5529 16.5529V22.5413H16.3529V16.5529H10.3422V15.3529H16.3529V9.36481H17.5529V15.3529H23.5187V16.5529H17.5529Z" fill="#fff" fill-opacity="0.8" />
</svg>
