<svg width="16" height="17" viewBox="0 0 16 17" fill="none" xmlns="http://www.w3.org/2000/svg">
<path d="M6.36364 6.75C6.65296 6.75 6.93044 6.63147 7.13503 6.42049C7.33961 6.20952 7.45455 5.92337 7.45455 5.625C7.45455 5.32663 7.33961 5.04048 7.13503 4.82951C6.93044 4.61853 6.65296 4.5 6.36364 4.5C6.07431 4.5 5.79683 4.61853 5.59225 4.82951C5.38766 5.04048 5.27273 5.32663 5.27273 5.625C5.27273 5.92337 5.38766 6.20952 5.59225 6.42049C5.79683 6.63147 6.07431 6.75 6.36364 6.75ZM9.63636 6.75C9.92569 6.75 10.2032 6.63147 10.4078 6.42049C10.6123 6.20952 10.7273 5.92337 10.7273 5.625C10.7273 5.32663 10.6123 5.04048 10.4078 4.82951C10.2032 4.61853 9.92569 4.5 9.63636 4.5C9.34704 4.5 9.06956 4.61853 8.86497 4.82951C8.66039 5.04048 8.54545 5.32663 8.54545 5.625C8.54545 5.92337 8.66039 6.20952 8.86497 6.42049C9.06956 6.63147 9.34704 6.75 9.63636 6.75ZM12.9091 6.75C13.1984 6.75 13.4759 6.63147 13.6805 6.42049C13.8851 6.20952 14 5.92337 14 5.625C14 5.32663 13.8851 5.04048 13.6805 4.82951C13.4759 4.61853 13.1984 4.5 12.9091 4.5C12.6198 4.5 12.3423 4.61853 12.1377 4.82951C11.9331 5.04048 11.8182 5.32663 11.8182 5.625C11.8182 5.92337 11.9331 6.20952 12.1377 6.42049C12.3423 6.63147 12.6198 6.75 12.9091 6.75ZM3.09091 10.125C3.38024 10.125 3.65771 10.0065 3.8623 9.79549C4.06688 9.58452 4.18182 9.29837 4.18182 9C4.18182 8.70163 4.06688 8.41548 3.8623 8.20451C3.65771 7.99353 3.38024 7.875 3.09091 7.875C2.80158 7.875 2.52411 7.99353 2.31952 8.20451C2.11493 8.41548 2 8.70163 2 9C2 9.29837 2.11493 9.58452 2.31952 9.79549C2.52411 10.0065 2.80158 10.125 3.09091 10.125ZM6.36364 10.125C6.65296 10.125 6.93044 10.0065 7.13503 9.79549C7.33961 9.58452 7.45455 9.29837 7.45455 9C7.45455 8.70163 7.33961 8.41548 7.13503 8.20451C6.93044 7.99353 6.65296 7.875 6.36364 7.875C6.07431 7.875 5.79683 7.99353 5.59225 8.20451C5.38766 8.41548 5.27273 8.70163 5.27273 9C5.27273 9.29837 5.38766 9.58452 5.59225 9.79549C5.79683 10.0065 6.07431 10.125 6.36364 10.125ZM9.63636 10.125C9.92569 10.125 10.2032 10.0065 10.4078 9.79549C10.6123 9.58452 10.7273 9.29837 10.7273 9C10.7273 8.70163 10.6123 8.41548 10.4078 8.20451C10.2032 7.99353 9.92569 7.875 9.63636 7.875C9.34704 7.875 9.06956 7.99353 8.86497 8.20451C8.66039 8.41548 8.54545 8.70163 8.54545 9C8.54545 9.29837 8.66039 9.58452 8.86497 9.79549C9.06956 10.0065 9.34704 10.125 9.63636 10.125ZM12.9091 10.125C13.1984 10.125 13.4759 10.0065 13.6805 9.79549C13.8851 9.58452 14 9.29837 14 9C14 8.70163 13.8851 8.41548 13.6805 8.20451C13.4759 7.99353 13.1984 7.875 12.9091 7.875C12.6198 7.875 12.3423 7.99353 12.1377 8.20451C11.9331 8.41548 11.8182 8.70163 11.8182 9C11.8182 9.29837 11.9331 9.58452 12.1377 9.79549C12.3423 10.0065 12.6198 10.125 12.9091 10.125ZM3.09091 13.5C3.38024 13.5 3.65771 13.3815 3.8623 13.1705C4.06688 12.9595 4.18182 12.6734 4.18182 12.375C4.18182 12.0766 4.06688 11.7905 3.8623 11.5795C3.65771 11.3685 3.38024 11.25 3.09091 11.25C2.80158 11.25 2.52411 11.3685 2.31952 11.5795C2.11493 11.7905 2 12.0766 2 12.375C2 12.6734 2.11493 12.9595 2.31952 13.1705C2.52411 13.3815 2.80158 13.5 3.09091 13.5ZM6.36364 13.5C6.65296 13.5 6.93044 13.3815 7.13503 13.1705C7.33961 12.9595 7.45455 12.6734 7.45455 12.375C7.45455 12.0766 7.33961 11.7905 7.13503 11.5795C6.93044 11.3685 6.65296 11.25 6.36364 11.25C6.07431 11.25 5.79683 11.3685 5.59225 11.5795C5.38766 11.7905 5.27273 12.0766 5.27273 12.375C5.27273 12.6734 5.38766 12.9595 5.59225 13.1705C5.79683 13.3815 6.07431 13.5 6.36364 13.5ZM9.63636 13.5C9.92569 13.5 10.2032 13.3815 10.4078 13.1705C10.6123 12.9595 10.7273 12.6734 10.7273 12.375C10.7273 12.0766 10.6123 11.7905 10.4078 11.5795C10.2032 11.3685 9.92569 11.25 9.63636 11.25C9.34704 11.25 9.06956 11.3685 8.86497 11.5795C8.66039 11.7905 8.54545 12.0766 8.54545 12.375C8.54545 12.6734 8.66039 12.9595 8.86497 13.1705C9.06956 13.3815 9.34704 13.5 9.63636 13.5Z" fill="#191C30" fill-opacity="0.6"/>
</svg>
