<svg width="24" height="24" viewBox="0 0 24 24" fill="none" xmlns="http://www.w3.org/2000/svg">
<path fill-rule="evenodd" clip-rule="evenodd" d="M4.23719 4.23657C4.55332 3.92114 5.06502 3.92114 5.38115 4.23657L12.0994 10.956L18.8181 4.23665C19.1343 3.92123 19.646 3.92114 19.9622 4.23657C20.2783 4.55274 20.2784 5.06468 19.9622 5.38085L13.2435 12.1002L19.9629 18.819C20.279 19.1351 20.279 19.647 19.9629 19.9632C19.8048 20.1213 19.5979 20.2 19.3908 20.2C19.1837 20.2 18.9769 20.1213 18.8188 19.9632L12.1 13.2438L5.38123 19.9632C5.22314 20.1213 5.01628 20.2 4.80917 20.2C4.60206 20.2 4.3952 20.1213 4.23711 19.9632C3.92096 19.647 3.92096 19.1352 4.23711 18.819L10.9559 12.1002L4.23711 5.38085C3.92172 5.0647 3.9218 4.55272 4.23719 4.23657Z" fill="currentColor" fill-opacity="0.3"/>
</svg>
