<svg width="34" height="32" viewBox="0 0 34 32" fill="none" xmlns="http://www.w3.org/2000/svg">
<path fill-rule="evenodd" clip-rule="evenodd" d="M16.3529 22.8157V9.09567H17.5529V22.8157H16.3529Z" fill="white" fill-opacity="0.8"/>
<path fill-rule="evenodd" clip-rule="evenodd" d="M16.9514 21.9175L11.9406 16.9067L11.0921 17.7552L16.9519 23.615L22.8059 17.755L21.957 16.9069L16.9514 21.9175Z" fill="white" fill-opacity="0.8"/>
<path fill-rule="evenodd" clip-rule="evenodd" d="M16.9529 4.2C10.462 4.2 5.2 9.46197 5.2 15.9529C5.2 22.4439 10.462 27.7059 16.9529 27.7059C23.4439 27.7059 28.7059 22.4439 28.7059 15.9529C28.7059 9.46197 23.4439 4.2 16.9529 4.2ZM4 15.9529C4 8.79923 9.79923 3 16.9529 3C24.1067 3 29.9059 8.79923 29.9059 15.9529C29.9059 23.1067 24.1067 28.9059 16.9529 28.9059C9.79923 28.9059 4 23.1067 4 15.9529Z" fill="white" fill-opacity="0.8"/>
</svg>
