<svg width="32" height="32" viewBox="0 0 32 32" fill="none" xmlns="http://www.w3.org/2000/svg">
<path fill-rule="evenodd" clip-rule="evenodd" d="M16.05 3.0001C13.4767 2.9902 10.9584 3.74423 8.81404 5.16666C6.66964 6.58909 4.99559 8.6159 4.00398 10.9905C3.01237 13.365 2.74778 15.9804 3.24373 18.5055C3.73968 21.0305 4.97386 23.3516 6.78993 25.1747C8.60601 26.9977 10.9223 28.2409 13.4454 28.7466C15.9685 29.2522 18.5849 28.9977 20.9633 28.0152C23.3416 27.0328 25.3749 25.3666 26.8056 23.2277C28.2362 21.0888 29 18.5734 29 16.0001C29.0066 14.2953 28.6765 12.6059 28.0286 11.029C27.3808 9.45202 26.4279 8.01852 25.2247 6.8107C24.0216 5.60288 22.5918 4.64456 21.0174 3.99064C19.4429 3.33671 17.7548 3.00008 16.05 3.0001ZM16.05 24.0001L9.76003 17.7101L11.05 16.5001L15.16 20.6101V8.81009H16.96V20.6101L21.06 16.5001L22.33 17.7701L16.05 24.0001Z" fill="#fff"/>
</svg>
