<svg width="32" height="32" viewBox="0 0 32 32" fill="none" xmlns="http://www.w3.org/2000/svg">
<path fill-rule="evenodd" clip-rule="evenodd" d="M6.60999 3.00001H25.61C26.5657 3.00001 27.4823 3.37894 28.1591 4.05379C28.8358 4.72863 29.2173 5.64429 29.22 6.59999V25.6C29.22 26.5574 28.8396 27.4757 28.1626 28.1527C27.4856 28.8297 26.5674 29.21 25.61 29.21H6.60999C5.65255 29.21 4.73438 28.8297 4.05737 28.1527C3.38037 27.4757 3 26.5574 3 25.6V6.59999C3 6.12639 3.09348 5.65747 3.27502 5.22005C3.45657 4.78262 3.72263 4.38528 4.05798 4.05086C4.39333 3.71643 4.79132 3.45146 5.22925 3.27113C5.66718 3.0908 6.13639 2.9987 6.60999 3.00001ZM12.74 23.14L24.08 11.81V11.79C24.4256 11.4416 24.6196 10.9707 24.6196 10.48C24.6196 9.98924 24.4256 9.51838 24.08 9.17L22.75 7.83998C22.4016 7.49434 21.9307 7.30043 21.4399 7.30043C20.9492 7.30043 20.4784 7.49434 20.13 7.83998L8.80005 19.18C8.46235 19.5096 8.23522 19.9358 8.15002 20.4L7.64001 23.06C7.60665 23.2277 7.61466 23.4009 7.66345 23.5647C7.71225 23.7285 7.80039 23.878 7.92004 24C8.11988 24.19 8.3843 24.2972 8.66003 24.3C8.72634 24.3099 8.79368 24.3099 8.85999 24.3L11.53 23.79C11.9906 23.7029 12.4131 23.4759 12.74 23.14ZM21.4406 8.19C21.7029 8.19111 21.9544 8.29524 22.1406 8.47998L23.4606 9.79999C23.6438 9.98692 23.7465 10.2382 23.7465 10.5C23.7465 10.7618 23.6438 11.013 23.4606 11.2L22.8606 11.8L20.1406 9.07996L20.7506 8.47998C20.8396 8.38697 20.9469 8.31325 21.0656 8.26337C21.1842 8.21348 21.3118 8.18851 21.4406 8.19ZM9.58952 19.68L10.0296 20.48C10.3674 21.1076 10.882 21.6222 11.5096 21.96L12.3095 22.4L12.1296 22.5799C11.9185 22.7889 11.6507 22.9315 11.3595 22.99L8.68949 23.5C8.66245 23.5032 8.63514 23.5002 8.60941 23.4913C8.58368 23.4824 8.56031 23.4678 8.54105 23.4485C8.5218 23.4293 8.50712 23.4059 8.49821 23.3802C8.48929 23.3545 8.48632 23.327 8.48954 23.3L8.99955 20.63C9.05805 20.3388 9.20062 20.0711 9.40958 19.86L9.58952 19.68ZM13.3112 19.25L12.7012 18.63L20.5812 10.75L19.5812 9.69L10.2812 18.99L10.8412 19.99C11.1028 20.4664 11.4948 20.8584 11.9712 21.12L12.9712 21.68L22.2712 12.38L21.2712 11.38L13.3112 19.25Z" fill="#fff"/>
</svg>
