<svg width="32" height="32" viewBox="0 0 32 32" fill="none" xmlns="http://www.w3.org/2000/svg">
<path fill-rule="evenodd" clip-rule="evenodd" d="M27.4491 4.76801C26.9618 4.27882 26.3005 4.00265 25.61 4H6.60999C5.91777 4 5.25387 4.275 4.7644 4.76447C4.27493 5.25394 4 5.91777 4 6.60999V25.61C4.00265 26.3005 4.27876 26.9618 4.76794 27.4491C5.25713 27.9364 5.9195 28.21 6.60999 28.21H25.61C26.2987 28.2074 26.9585 27.9326 27.4456 27.4456C27.9326 26.9585 28.2073 26.2987 28.21 25.61V6.60999C28.21 5.9195 27.9364 5.25719 27.4491 4.76801ZM6.60999 3H25.61C26.5657 3.00265 27.4813 3.38413 28.1561 4.06085C28.831 4.73757 29.21 5.65428 29.21 6.60999V25.61C29.21 26.5648 28.8306 27.4804 28.1555 28.1556C27.4804 28.8307 26.5648 29.21 25.61 29.21H6.60999C5.65428 29.21 4.73763 28.831 4.06091 28.1562C3.38419 27.4813 3.00265 26.5657 3 25.61V6.60999C3 5.65255 3.38037 4.73438 4.05737 4.05737C4.73438 3.38037 5.65255 3 6.60999 3ZM22.6911 7.87L24.0211 9.20001H24.051C24.3967 9.5484 24.5907 10.0193 24.5907 10.51C24.5907 11.0008 24.3967 11.4716 24.051 11.82L12.7111 23.15C12.3811 23.4819 11.96 23.7081 11.5011 23.8L8.83107 24.31H8.63112C8.49473 24.3108 8.35957 24.2838 8.23403 24.2305C8.10849 24.1772 7.99525 24.0987 7.90114 24C7.77753 23.8826 7.68591 23.7355 7.63515 23.5727C7.58439 23.4099 7.57615 23.2369 7.6111 23.07L8.09108 20.42C8.18452 19.9588 8.41043 19.5348 8.74111 19.2L20.0711 7.87C20.4194 7.52436 20.8904 7.33044 21.3811 7.33044C21.8719 7.33044 22.3427 7.52436 22.6911 7.87ZM21.1411 11.32L13.2511 19.2L12.6111 18.57L20.4911 10.68L19.4411 9.67999L10.1511 18.97L10.7111 19.97C10.9695 20.4488 11.3623 20.8416 11.8411 21.1L12.8411 21.66L22.1411 12.37L21.1411 11.32ZM8.59108 23.4L11.2511 22.89L11.301 22.94C11.5948 22.8888 11.8646 22.7452 12.0711 22.53L12.2511 22.34L11.4511 21.91C10.8276 21.5667 10.3144 21.0535 9.97109 20.43L9.54116 19.63L9.35109 19.81C9.14197 20.0156 9.00213 20.2812 8.95107 20.57L8.43105 23.24C8.41097 23.2914 8.41097 23.3486 8.43105 23.4C8.45591 23.4124 8.48337 23.4188 8.51113 23.4188C8.53888 23.4188 8.56622 23.4124 8.59108 23.4ZM22.7511 11.75L23.3611 11.15L23.4112 11.2C23.4968 11.0982 23.5612 10.9803 23.6007 10.8532C23.6402 10.7261 23.654 10.5925 23.6411 10.46C23.6427 10.1991 23.5422 9.94788 23.3611 9.76001L22.0311 8.42999C21.8433 8.24891 21.592 8.14846 21.3311 8.15002C21.0736 8.15105 20.8265 8.25131 20.6411 8.42999L20.0412 9.03998L22.7511 11.75Z" fill="#fff"/>
</svg>
