<svg width="32" height="32" viewBox="0 0 32 32" fill="none" xmlns="http://www.w3.org/2000/svg">
<path fill-rule="evenodd" clip-rule="evenodd" d="M31.01 8.1874L17.01 3.03744C16.8779 2.98752 16.7321 2.98752 16.6 3.03744L2.60004 8.1874C2.48685 8.23094 2.38946 8.30777 2.3208 8.40774C2.25214 8.50771 2.21539 8.62612 2.21539 8.7474C2.21539 8.86867 2.25214 8.98715 2.3208 9.08712C2.38946 9.18709 2.48685 9.26386 2.60004 9.30739L4.22003 9.90743C4.21535 9.95398 4.21535 10.0009 4.22003 10.0474V21.2074C3.97687 21.2261 3.73769 21.28 3.51001 21.3674C2.91367 21.6169 2.43948 22.0911 2.19 22.6874C2.06756 22.9858 2.00307 23.3048 2 23.6274V28.6874C2 28.7662 2.0155 28.8442 2.04565 28.917C2.07581 28.9898 2.12001 29.0559 2.17572 29.1117C2.23144 29.1674 2.29763 29.2116 2.37042 29.2417C2.44322 29.2719 2.52124 29.2874 2.60004 29.2874H7.03003C7.18916 29.2874 7.34176 29.2242 7.45428 29.1117C7.56681 28.9991 7.63 28.8465 7.63 28.6874V23.6274C7.63229 23.0204 7.40637 22.4347 6.99701 21.9864C6.58765 21.5382 6.02474 21.2601 5.41998 21.2074V10.3374L8.02002 11.3374V18.5374C8.02508 18.8284 8.13931 19.1067 8.34003 19.3174C8.52892 19.5093 8.74859 19.6682 8.98999 19.7874C9.59715 20.0804 10.2389 20.2954 10.9 20.4274C14.8261 21.1607 18.854 21.1607 22.78 20.4274C23.4407 20.2937 24.0822 20.0787 24.69 19.7874C24.9283 19.668 25.1448 19.5091 25.33 19.3174C25.5379 19.1106 25.6564 18.8306 25.66 18.5374V11.3374L31.04 9.33742C31.1577 9.29839 31.2601 9.22329 31.3326 9.12276C31.4052 9.02224 31.4443 8.90141 31.4443 8.77743C31.4443 8.65345 31.4052 8.53261 31.3326 8.43209C31.2601 8.33157 31.1577 8.25646 31.04 8.21743L31.01 8.1874ZM6.01001 22.7474C6.23943 22.9831 6.36847 23.2985 6.37 23.6274V28.0874H3.14001V23.6274C3.13846 23.4621 3.17254 23.2984 3.23999 23.1474C3.30147 22.9969 3.39341 22.8607 3.51001 22.7474C3.62421 22.6319 3.76018 22.5401 3.91003 22.4774C4.06278 22.4169 4.22572 22.3863 4.39001 22.3874H5.13C5.29796 22.3843 5.46489 22.4144 5.62109 22.4762C5.7773 22.538 5.9197 22.6302 6.04004 22.7474H6.01001Z" fill="#fff"/>
</svg>
