<svg width="32" height="32" viewBox="0 0 32 32" fill="none" xmlns="http://www.w3.org/2000/svg">
<path d="M25.59 3H6.61C4.61625 3 3 4.61625 3 6.61V25.59C3 27.5837 4.61625 29.2 6.61 29.2H25.59C27.5837 29.2 29.2 27.5837 29.2 25.59V6.61C29.2 4.61625 27.5837 3 25.59 3Z" fill="white"/>
<path d="M21.7651 11.2334V12.3897H25.0343L16.5827 19.3591L13.6394 16.153L4 24.0999L4.73583 24.9935L6.33364 23.6795V27.653H7.48994V22.7229L11.1586 19.6955V23.7951H12.3149V18.7494L13.5238 17.7403L15.973 20.4103V25.2457H17.1293V20.4103L20.7875 17.3829V28.1365H21.9438V16.4368L25.8542 13.2096V16.4683H27V11.2334H21.7651Z" fill="black"/>
<path d="M7.49029 10.3086H6.33398V19.4644H7.49029V10.3086Z" fill="black"/>
<path d="M12.315 5.4834H11.1587V15.1228H12.315V5.4834Z" fill="black"/>
<path d="M17.1295 8.37427H15.9731V15.6064H17.1295V8.37427Z" fill="black"/>
<path d="M21.9439 5H20.7876V9.34141H21.9439V5Z" fill="black"/>
</svg>
