<svg width="32" height="32" viewBox="0 0 32 32" fill="none" xmlns="http://www.w3.org/2000/svg">
<path fill-rule="evenodd" clip-rule="evenodd" d="M25.61 3.00001H6.60999C6.13639 2.9987 5.66718 3.09087 5.22925 3.27119C4.79132 3.45152 4.39327 3.7165 4.05792 4.05092C3.72257 4.38534 3.45651 4.78262 3.27496 5.22005C3.09342 5.65747 3 6.12639 3 6.59999V25.6C3 26.0741 3.09336 26.5435 3.27478 26.9815C3.4562 27.4195 3.72215 27.8174 4.05737 28.1527C4.39259 28.4879 4.79053 28.7538 5.22852 28.9352C5.6665 29.1166 6.13591 29.21 6.60999 29.21H25.61C26.0841 29.21 26.5535 29.1166 26.9915 28.9352C27.4295 28.7538 27.8274 28.4879 28.1627 28.1527C28.4979 27.8174 28.7638 27.4195 28.9452 26.9815C29.1266 26.5435 29.22 26.0741 29.22 25.6V6.59999C29.22 6.12639 29.1265 5.65747 28.945 5.22005C28.7635 4.78262 28.4974 4.38534 28.162 4.05092C27.8267 3.7165 27.4286 3.45152 26.9907 3.27119C26.5528 3.09087 26.0836 2.9987 25.61 3.00001ZM21.07 16L17 11.84V23.64H15.2V11.84L11 16L9.72998 14.73L16.02 8.44002L22.3 14.73L21.07 16Z" fill="#fff"/>
</svg>
