<svg width="16" height="16" viewBox="0 0 16 16" fill="none" xmlns="http://www.w3.org/2000/svg">
<path fill-rule="evenodd" clip-rule="evenodd" d="M6.72719 2.00365C7.96533 1.95593 9.17583 2.37754 10.1165 3.18412C11.0572 3.99069 11.6587 5.12275 11.8006 6.3538C11.9349 7.51865 11.6485 8.69087 10.9968 9.66039L13.7235 12.3875C13.9006 12.5648 14.0001 12.8051 14 13.0557C13.9999 13.3062 13.9003 13.5464 13.7231 13.7235C13.5459 13.9006 13.3056 14.0001 13.0551 14C12.8046 13.9999 12.5644 13.9003 12.3873 13.7231L9.66128 10.9967C8.69255 11.6487 7.5211 11.9358 6.3567 11.8023C5.1257 11.6612 3.99336 11.0605 3.18623 10.1202C2.3791 9.18002 1.95669 7.96967 2.00351 6.73135C2.05034 5.49302 2.56293 4.31803 3.43876 3.44146C4.31458 2.56488 5.48905 2.05136 6.72719 2.00365ZM6.91714 3.1654C5.92263 3.1654 4.96884 3.56053 4.26561 4.26386C3.56237 4.9672 3.16729 5.92113 3.16729 6.91581C3.16729 7.40833 3.26428 7.89602 3.45273 8.35104C3.64118 8.80607 3.9174 9.21951 4.2656 9.56776C4.61381 9.91602 5.02719 10.1923 5.48214 10.3807C5.93709 10.5692 6.42471 10.6662 6.91714 10.6662C7.40957 10.6662 7.89718 10.5692 8.35213 10.3807C8.80709 10.1923 9.22047 9.91602 9.56867 9.56776C9.91688 9.21951 10.1931 8.80607 10.3815 8.35104C10.57 7.89602 10.667 7.40833 10.667 6.91581C10.667 5.92113 10.2719 4.9672 9.56867 4.26386C8.86544 3.56053 7.91165 3.1654 6.91714 3.1654Z" fill="#191C30" fill-opacity="0.6"/>
</svg>
