<svg width="16" height="16" viewBox="0 0 16 16" fill="none" xmlns="http://www.w3.org/2000/svg">
<path fill-rule="evenodd" clip-rule="evenodd" d="M4.1629 3.34878C5.25678 2.47488 6.60638 2 7.99609 2C9.38579 2 10.7354 2.47488 11.8293 3.34878C12.5694 3.94007 13.1636 4.69094 13.5734 5.54088L14.0851 3.74622C14.157 3.49391 14.416 3.34882 14.6635 3.42216C14.911 3.49551 15.0533 3.7595 14.9813 4.01182L14.1033 7.09132C14.066 7.222 13.9757 7.33015 13.8551 7.38844C13.7379 7.44504 13.6032 7.44936 13.483 7.40074C13.4223 7.38791 13.3649 7.36286 13.3143 7.32763L10.6685 6.17876C10.4313 6.0758 10.321 5.79636 10.422 5.55461C10.523 5.31287 10.7971 5.20037 11.0342 5.30333L12.7838 6.06305C12.4347 5.29862 11.9121 4.62385 11.2536 4.09775C10.324 3.35509 9.17707 2.95153 7.99609 2.95153C6.8151 2.95153 5.66819 3.35509 4.73859 4.09775C3.80899 4.84041 3.15032 5.87931 2.86786 7.04847C2.80622 7.3036 2.55338 7.45949 2.30312 7.39665C2.05286 7.33381 1.89996 7.07604 1.9616 6.82091C2.29397 5.44516 3.06902 4.22268 4.1629 3.34878ZM2.14483 8.61138C2.26547 8.55305 2.40485 8.55019 2.5277 8.60353L2.52796 8.60364C2.57562 8.61584 2.62093 8.63561 2.66223 8.66195L5.33153 9.82101C5.56866 9.92397 5.67901 10.2034 5.57802 10.4452C5.47702 10.6869 5.20292 10.7994 4.96579 10.6964L3.20625 9.93241C3.55543 10.6987 4.07876 11.3751 4.73859 11.9022C5.6682 12.6449 6.81511 13.0485 7.99609 13.0485C9.17706 13.0485 10.324 12.6449 11.2536 11.9022C12.1832 11.1596 12.8418 10.1207 13.1243 8.95151C13.1859 8.69638 13.4388 8.54049 13.689 8.60333C13.9393 8.66617 14.0922 8.92394 14.0305 9.17907C13.6982 10.5548 12.9232 11.7773 11.8293 12.6512C10.7354 13.5251 9.38579 14 7.99609 14C6.60638 14 5.25677 13.5251 4.1629 12.6512C3.42599 12.0625 2.83377 11.3156 2.42411 10.4702L1.91499 12.2593C1.84318 12.5116 1.5843 12.6569 1.33677 12.5836C1.08924 12.5104 0.946789 12.2465 1.0186 11.9942L1.89663 8.90869C1.93383 8.77795 2.02419 8.66972 2.14483 8.61138Z" fill="#191C30"/>
</svg>
