<svg width="28" height="24" viewBox="0 0 28 24" fill="none" xmlns="http://www.w3.org/2000/svg">
<rect width="28" height="24" rx="5" fill="#191C30" fill-opacity="0.06"/>
<path fill-rule="evenodd" clip-rule="evenodd" d="M10.1629 7.34878C11.2568 6.47488 12.6064 6 13.9961 6C15.3858 6 16.7354 6.47488 17.8293 7.34878C18.5694 7.94007 19.1636 8.69094 19.5734 9.54088L20.0851 7.74622C20.157 7.49391 20.416 7.34882 20.6635 7.42216C20.911 7.49551 21.0533 7.7595 20.9813 8.01182L20.1033 11.0913C20.066 11.222 19.9757 11.3302 19.8551 11.3884C19.7379 11.445 19.6032 11.4494 19.483 11.4007C19.4223 11.3879 19.3649 11.3629 19.3143 11.3276L16.6685 10.1788C16.4313 10.0758 16.321 9.79636 16.422 9.55461C16.523 9.31287 16.7971 9.20037 17.0342 9.30333L18.7838 10.0631C18.4347 9.29862 17.9121 8.62385 17.2536 8.09775C16.324 7.35509 15.1771 6.95153 13.9961 6.95153C12.8151 6.95153 11.6682 7.35509 10.7386 8.09775C9.80899 8.84041 9.15032 9.87931 8.86786 11.0485C8.80622 11.3036 8.55338 11.4595 8.30312 11.3967C8.05286 11.3338 7.89996 11.076 7.9616 10.8209C8.29397 9.44516 9.06902 8.22268 10.1629 7.34878ZM8.14483 12.6114C8.26547 12.553 8.40485 12.5502 8.5277 12.6035L8.52796 12.6036C8.57562 12.6158 8.62093 12.6356 8.66223 12.6619L11.3315 13.821C11.5687 13.924 11.679 14.2034 11.578 14.4452C11.477 14.6869 11.2029 14.7994 10.9658 14.6964L9.20625 13.9324C9.55543 14.6987 10.0788 15.3751 10.7386 15.9022C11.6682 16.6449 12.8151 17.0485 13.9961 17.0485C15.1771 17.0485 16.324 16.6449 17.2536 15.9022C18.1832 15.1596 18.8418 14.1207 19.1243 12.9515C19.1859 12.6964 19.4388 12.5405 19.689 12.6033C19.9393 12.6662 20.0922 12.9239 20.0305 13.1791C19.6982 14.5548 18.9232 15.7773 17.8293 16.6512C16.7354 17.5251 15.3858 18 13.9961 18C12.6064 18 11.2568 17.5251 10.1629 16.6512C9.42599 16.0625 8.83377 15.3156 8.42411 14.4702L7.91499 16.2593C7.84318 16.5116 7.5843 16.6569 7.33677 16.5836C7.08924 16.5104 6.94679 16.2465 7.0186 15.9942L7.89663 12.9087C7.93383 12.7779 8.02419 12.6697 8.14483 12.6114Z" fill="#191C30"/>
</svg>
