<svg width="34" height="32" viewBox="0 0 34 32" fill="none" xmlns="http://www.w3.org/2000/svg">
<path fill-rule="evenodd" clip-rule="evenodd" d="M16.9529 4.2C10.462 4.2 5.2 9.46197 5.2 15.9529C5.2 22.4439 10.462 27.7059 16.9529 27.7059C23.4439 27.7059 28.7059 22.4439 28.7059 15.9529C28.7059 9.46197 23.4439 4.2 16.9529 4.2ZM4 15.9529C4 8.79923 9.79923 3 16.9529 3C24.1067 3 29.9059 8.79923 29.9059 15.9529C29.9059 23.1067 24.1067 28.9059 16.9529 28.9059C9.79923 28.9059 4 23.1067 4 15.9529ZM16.0043 11.1396C13.6735 11.1396 11.7839 13.0292 11.7839 15.36C11.7839 17.6909 13.6735 19.5804 16.0043 19.5804C18.3352 19.5804 20.2247 17.6909 20.2247 15.36C20.2247 13.0292 18.3352 11.1396 16.0043 11.1396ZM10.5839 15.36C10.5839 12.3664 13.0107 9.93962 16.0043 9.93962C18.9979 9.93962 21.4247 12.3664 21.4247 15.36C21.4247 16.6097 21.0018 17.7606 20.2914 18.6774L23.3191 21.7051L22.4706 22.5537L19.4562 19.5393C18.5187 20.3146 17.3159 20.7804 16.0043 20.7804C13.0107 20.7804 10.5839 18.3536 10.5839 15.36Z" fill="white" fill-opacity="0.8"/>
</svg>
