<svg width="32" height="32" viewBox="0 0 32 32" fill="none" xmlns="http://www.w3.org/2000/svg">
<path d="M28.9852 13.8608C28.5119 13.3173 27.8587 12.9623 27.1452 12.8608C26.8357 12.8092 26.5438 12.6821 26.2952 12.4908C26.0512 12.2974 25.8589 12.0466 25.7352 11.7609C25.6159 11.4698 25.5746 11.1528 25.6152 10.8409C25.6516 10.5325 25.7688 10.2392 25.9552 9.99084C26.2833 9.55687 26.4873 9.04183 26.5452 8.50085C26.6047 7.96204 26.5172 7.41715 26.2918 6.92413C26.0664 6.43111 25.7117 6.00839 25.2652 5.70087C24.8181 5.39428 24.2963 5.21456 23.7552 5.18085C23.0394 5.13204 22.3299 5.34139 21.7552 5.77087C21.5034 5.95548 21.2086 6.07258 20.8988 6.11108C20.589 6.14959 20.2745 6.1082 19.9852 5.99084C19.6963 5.87263 19.4442 5.67928 19.2552 5.43085C19.0598 5.18468 18.9322 4.89165 18.8852 4.58087C18.7837 3.86733 18.4288 3.21415 17.8852 2.74084C17.3285 2.26281 16.619 2 15.8852 2C15.1514 2 14.4419 2.26281 13.8852 2.74084C13.3417 3.21415 12.9867 3.86733 12.8852 4.58087C12.8361 4.88754 12.7163 5.17853 12.5352 5.43085C12.3432 5.67632 12.092 5.86901 11.8052 5.99084C11.5124 6.10367 11.1978 6.14814 10.8852 6.12085C10.5733 6.08078 10.2752 5.9677 10.0152 5.79083C9.58661 5.46153 9.07341 5.26047 8.53518 5.21088C7.99797 5.15322 7.45516 5.24168 6.96408 5.46698C6.47299 5.69228 6.05189 6.04602 5.7452 6.49084C5.44335 6.9366 5.264 7.4539 5.22519 7.99084C5.18295 8.70435 5.38779 9.41063 5.8052 9.99084C5.99741 10.2359 6.11536 10.5309 6.14517 10.8409C6.18446 11.1483 6.14237 11.4607 6.02304 11.7468C5.9037 12.0328 5.71131 12.2825 5.46518 12.4709C5.22026 12.6621 4.9316 12.7892 4.62521 12.8409C3.91167 12.9424 3.25848 13.2973 2.78518 13.8409C2.41429 14.2468 2.1621 14.7469 2.05618 15.2865C1.95026 15.8261 1.99469 16.3844 2.1846 16.9005C2.3745 17.4165 2.7026 17.8704 3.13302 18.2126C3.56344 18.5549 4.07964 18.7722 4.62521 18.8409C4.93081 18.8828 5.22023 19.0034 5.46518 19.1909C5.71612 19.3816 5.90983 19.6375 6.02517 19.9308C6.14835 20.2173 6.19322 20.5314 6.15518 20.8409C6.1166 21.1485 6.00705 21.4429 5.83517 21.7009C5.5087 22.132 5.30488 22.6434 5.2452 23.1808C5.18755 23.7181 5.27601 24.2609 5.50131 24.752C5.72661 25.243 6.08035 25.6642 6.52517 25.9709C7.04144 26.3285 7.65695 26.515 8.28488 26.5043C8.9128 26.4935 9.52147 26.286 10.0252 25.9109C10.2771 25.7242 10.5737 25.6069 10.8852 25.5709C11.1914 25.5378 11.5009 25.5825 11.7852 25.7009C12.0741 25.8191 12.3262 26.0124 12.5152 26.2609C12.7079 26.5049 12.8352 26.794 12.8852 27.1009C12.9867 27.8144 13.3417 28.4676 13.8852 28.9409C14.4352 29.4328 15.1473 29.7048 15.8852 29.7048C16.6232 29.7048 17.3352 29.4328 17.8852 28.9409C18.4288 28.4676 18.7837 27.8144 18.8852 27.1009C18.9352 26.794 19.0625 26.5049 19.2552 26.2609C19.4413 26.0095 19.6942 25.8155 19.9852 25.7009C20.274 25.5735 20.5924 25.5285 20.9052 25.5709C21.2135 25.6072 21.5068 25.7246 21.7552 25.9109C22.323 26.3582 23.0332 26.5854 23.7552 26.5508C24.5074 26.522 25.2213 26.2115 25.7552 25.6808C26.2859 25.1469 26.5964 24.4331 26.6252 23.6808C26.6663 22.958 26.4383 22.2455 25.9852 21.6808C25.8005 21.4278 25.6834 21.1318 25.6452 20.8209C25.6041 20.509 25.6455 20.1918 25.7652 19.9009C25.8834 19.612 26.0768 19.3599 26.3252 19.1708C26.5739 18.9796 26.8658 18.8525 27.1752 18.8008C27.8887 18.6994 28.5419 18.3444 29.0152 17.8008C29.4985 17.2473 29.7618 16.5356 29.7552 15.8008C29.739 15.0829 29.4658 14.3945 28.9852 13.8608ZM19.9852 19.9109C19.0451 20.8587 17.8046 21.4499 16.4763 21.5831C15.148 21.7163 13.8147 21.3832 12.7052 20.6409C11.5074 19.8491 10.6479 18.6392 10.2945 17.2476C9.94114 15.856 10.1193 14.3826 10.7942 13.1153C11.469 11.848 12.5922 10.8779 13.9442 10.3944C15.2961 9.91095 16.7797 9.94889 18.1052 10.5009C19.1633 10.9358 20.0679 11.676 20.7037 12.627C21.3395 13.578 21.6777 14.6969 21.6752 15.8409C21.6658 16.602 21.5055 17.3537 21.2033 18.0524C20.9012 18.751 20.4633 19.3827 19.9152 19.9109H19.9852Z" fill="#fff"/>
</svg>
