<svg width="30" height="27" viewBox="0 0 30 27" fill="none" xmlns="http://www.w3.org/2000/svg">
<path d="M14.8333 0.505182L14.8333 0.505164C14.8151 0.498279 14.795 0.498279 14.7768 0.505164L14.7727 0.506712L14.7727 0.506694L0.777557 5.65485C0.75948 5.66225 0.743966 5.67477 0.732961 5.6908C0.721512 5.70747 0.715393 5.7272 0.715393 5.7474C0.715393 5.76765 0.721541 5.78743 0.732961 5.80406C0.743953 5.82006 0.759531 5.83263 0.777858 5.84006L2.3937 6.43856L2.75618 6.57282L2.71753 6.95743C2.71619 6.97073 2.71619 6.98415 2.71753 6.99745L2.72003 7.02238V7.04745V18.2074V18.6705L2.25836 18.7059C2.06588 18.7207 1.87654 18.763 1.69616 18.8315C1.22474 19.0308 0.849891 19.4067 0.651903 19.8788C0.554281 20.1174 0.502737 20.3722 0.5 20.6299V25.6874C0.5 25.7006 0.502599 25.7136 0.507594 25.7257C0.512605 25.7378 0.51996 25.7488 0.529274 25.7581C0.538483 25.7673 0.549532 25.7747 0.561764 25.7798C0.574063 25.7849 0.587084 25.7874 0.600037 25.7874H5.03003C5.05645 25.7874 5.0819 25.7769 5.10073 25.7581C5.11947 25.7394 5.13 25.7139 5.13 25.6874V20.6274V20.6255C5.13049 20.4977 5.11822 20.3711 5.09387 20.2474H4.82744C4.85494 20.3705 4.86939 20.4971 4.86999 20.6251L4.87 20.6274L4.87 25.0874V25.5874H4.37H1.14001H0.640015V25.0874V20.6295C0.638175 20.396 0.685935 20.1646 0.780201 19.9509C0.867063 19.7411 0.995556 19.5511 1.15789 19.3924C1.31785 19.2315 1.50788 19.1037 1.71703 19.0162L1.7258 19.0125L1.72583 19.0126C1.9376 18.9287 2.16353 18.8862 2.39143 18.8874M14.8333 0.505182L2.39001 19.3874M14.8333 0.505182L14.8374 0.506694L28.7342 5.6187L28.7702 5.65472L28.8826 5.69201C28.9005 5.69795 28.9161 5.70938 28.9272 5.72475C28.9383 5.7401 28.9443 5.75854 28.9443 5.77743C28.9443 5.79631 28.9383 5.81475 28.9272 5.83011C28.9161 5.84548 28.9005 5.85691 28.8826 5.86285L28.8742 5.86565L28.8658 5.86876L23.4858 7.86876L23.16 7.98987V8.33742V15.5338C23.1573 15.6951 23.0918 15.8491 22.9774 15.9629L22.9773 15.9629L22.9705 15.9699C22.8254 16.12 22.6562 16.2446 22.4698 16.3385C21.9015 16.6104 21.3019 16.8113 20.6844 16.9366C16.8213 17.6577 12.858 17.6577 8.9949 16.9365C8.37694 16.8128 7.77703 16.6118 7.2094 16.3381C7.02026 16.2444 6.84795 16.1199 6.69944 15.9698C6.58768 15.8511 6.52378 15.6954 6.52002 15.5325V8.33742V7.99402L6.19951 7.87075L3.59947 6.87075L2.91998 6.60941V7.33742V18.2074V18.6658L3.3766 18.7055C3.8564 18.7473 4.30302 18.9679 4.6278 19.3236C4.81197 19.5253 4.94935 19.762 5.03344 20.017L4.38891 19.3892C4.22119 19.2259 4.02273 19.0974 3.80503 19.0113C3.58884 18.9258 3.35797 18.8837 3.12565 18.8874M14.8333 0.505182L4.04004 19.7182V19.2474H4.01001H3.71162H3.13V18.8874H3.12565M2.39143 18.8874C2.39206 18.8874 2.39268 18.8874 2.39331 18.8874L2.39001 19.3874M2.39143 18.8874H2.39001V19.3874M2.39143 18.8874H3.12565M2.39001 19.3874H2.96174L2.82543 19.2474H3.12737L3.1206 18.8875C3.12229 18.8875 3.12397 18.8874 3.12565 18.8874M0 20.6274V25.6874C0 25.7662 0.0155015 25.8442 0.0456543 25.917C0.0758071 25.9898 0.120005 26.0559 0.17572 26.1117C0.231435 26.1674 0.297627 26.2116 0.370422 26.2417C0.443218 26.2719 0.521244 26.2874 0.600037 26.2874H5.03003C5.18916 26.2874 5.34176 26.2242 5.45428 26.1117C5.56681 25.9991 5.63 25.8465 5.63 25.6874V20.6274C5.63229 20.0204 5.40637 19.4347 4.99701 18.9864C4.58765 18.5382 4.02474 18.2601 3.41998 18.2074L0 20.6274ZM4.30996 20.2474C4.34882 20.3692 4.36939 20.4973 4.37 20.6274V24.5874V25.0874H3.87H1.64001H1.14001V24.5874V20.6274C1.13846 20.4621 1.17254 20.2984 1.23999 20.1474C1.30147 19.9969 1.39341 19.8607 1.51001 19.7474C1.62421 19.6319 1.76018 19.5401 1.91003 19.4774L4.30996 20.2474Z" fill="white" stroke="black"/>
</svg>
